REM DIRINDEX 1\2,1\4,1\3\5,1\3\6,1\3\7
REM DIRNAME folder01,folder02,folder03,folder04,folder05,folder06,folder07
TITLE ""
FILE "CD2Track43.mp3" MP3
  TRACK 01 AUDIO
    TITLE "0:"
    INDEX 01 00:00:00
  TRACK 02 AUDIO
    TITLE "5:cjc082_2117"
    INDEX 01 00:00:27
  TRACK 03 AUDIO
    TITLE "0:"
    INDEX 01 00:01:46
  TRACK 04 AUDIO
    TITLE "6:cjc082_2118"
    INDEX 01 00:02:24
  TRACK 05 AUDIO
    TITLE "0:"
    INDEX 01 00:03:70
  TRACK 06 AUDIO
    TITLE "5:cjc082_2119"
    INDEX 01 00:04:44
  TRACK 07 AUDIO
    TITLE "0:"
    INDEX 01 00:05:65
  TRACK 08 AUDIO
    TITLE "6:cjc082_2120"
    INDEX 01 00:06:35
  TRACK 09 AUDIO
    TITLE "0:"
    INDEX 01 00:07:64
  TRACK 10 AUDIO
    TITLE "5:cjc082_2121"
    INDEX 01 00:08:38
  TRACK 11 AUDIO
    TITLE "0:"
    INDEX 01 00:10:04
  TRACK 12 AUDIO
    TITLE "6:cjc082_2122"
    INDEX 01 00:10:49
  TRACK 13 AUDIO
    TITLE "0:"
    INDEX 01 00:11:74
  TRACK 14 AUDIO
    TITLE "5:cjc082_2123"
    INDEX 01 00:12:50
  TRACK 15 AUDIO
    TITLE "0:"
    INDEX 01 00:13:63
  TRACK 16 AUDIO
    TITLE "6:cjc082_2124"
    INDEX 01 00:14:33
  TRACK 17 AUDIO
    TITLE "0:"
    INDEX 01 00:18:09
  TRACK 18 AUDIO
    TITLE "5:cjc082_2125"
    INDEX 01 00:18:56
  TRACK 19 AUDIO
    TITLE "0:"
    INDEX 01 00:20:04
  TRACK 20 AUDIO
    TITLE "6:cjc082_2126"
    INDEX 01 00:20:49
  TRACK 21 AUDIO
    TITLE "0:"
    INDEX 01 00:21:66
  TRACK 22 AUDIO
    TITLE "5:cjc082_2127"
    INDEX 01 00:22:34
  TRACK 23 AUDIO
    TITLE "0:"
    INDEX 01 00:23:40
  TRACK 24 AUDIO
    TITLE "6:cjc082_2128"
    INDEX 01 00:24:16
  TRACK 25 AUDIO
    TITLE "0:"
    INDEX 01 00:25:43
  TRACK 26 AUDIO
    TITLE "5:cjc082_2129"
    INDEX 01 00:26:15
  TRACK 27 AUDIO
    TITLE "0:"
    INDEX 01 00:27:53
  TRACK 28 AUDIO
    TITLE "6:cjc082_2130"
    INDEX 01 00:28:27
  TRACK 29 AUDIO
    TITLE "0:"
    INDEX 01 00:31:04
  TRACK 30 AUDIO
    TITLE "5:cjc082_2131"
    INDEX 01 00:31:47
  TRACK 31 AUDIO
    TITLE "0:"
    INDEX 01 00:33:03
  TRACK 32 AUDIO
    TITLE "6:cjc082_2132"
    INDEX 01 00:33:42
  TRACK 33 AUDIO
    TITLE "0:"
    INDEX 01 00:35:41
  TRACK 34 AUDIO
    TITLE "5:cjc082_2133"
    INDEX 01 00:36:09
  TRACK 35 AUDIO
    TITLE "0:"
    INDEX 01 00:37:38
  TRACK 36 AUDIO
    TITLE "6:cjc082_2134"
    INDEX 01 00:38:14
  TRACK 37 AUDIO
    TITLE "0:"
    INDEX 01 00:39:58
  TRACK 38 AUDIO
    TITLE "5:cjc082_2135"
    INDEX 01 00:40:28
  TRACK 39 AUDIO
    TITLE "0:"
    INDEX 01 00:41:38
  TRACK 40 AUDIO
    TITLE "6:cjc082_2136"
    INDEX 01 00:42:06
  TRACK 41 AUDIO
    TITLE "0:"
    INDEX 01 00:43:31
  TRACK 42 AUDIO
    TITLE "5:cjc082_2137"
    INDEX 01 00:43:74
  TRACK 43 AUDIO
    TITLE "0:"
    INDEX 01 00:45:24
  TRACK 44 AUDIO
    TITLE "6:cjc082_2138"
    INDEX 01 00:45:71
  TRACK 45 AUDIO
    TITLE "0:"
    INDEX 01 00:47:74
  TRACK 46 AUDIO
    TITLE "5:cjc082_2139"
    INDEX 01 00:48:42
  TRACK 47 AUDIO
    TITLE "0:"
    INDEX 01 00:49:49
  TRACK 48 AUDIO
    TITLE "6:cjc082_2140"
    INDEX 01 00:50:19
  TRACK 49 AUDIO
    TITLE "0:"
    INDEX 01 00:52:14
  TRACK 50 AUDIO
    TITLE "5:cjc082_2141"
    INDEX 01 00:52:57
  TRACK 51 AUDIO
    TITLE "0:"
    INDEX 01 00:54:17
  TRACK 52 AUDIO
    TITLE "6:cjc082_2142"
    INDEX 01 00:54:72
  TRACK 53 AUDIO
    TITLE "0:"
    INDEX 01 00:56:61
  TRACK 54 AUDIO
    TITLE "5:cjc082_2143"
    INDEX 01 00:57:31
  TRACK 55 AUDIO
    TITLE "0:"
    INDEX 01 00:59:14
  TRACK 56 AUDIO
    TITLE "6:cjc082_2144"
    INDEX 01 00:59:57
  TRACK 57 AUDIO
    TITLE "0:"
    INDEX 01 01:02:14
  TRACK 58 AUDIO
    TITLE "5:cjc082_2145"
    INDEX 01 01:02:55
  TRACK 59 AUDIO
    TITLE "0:"
    INDEX 01 01:03:71
  TRACK 60 AUDIO
    TITLE "6:cjc082_2146"
    INDEX 01 01:04:45
  TRACK 61 AUDIO
    TITLE "0:"
    INDEX 01 01:05:46
  TRACK 62 AUDIO
    TITLE "7:cjc082_2147"
    INDEX 01 01:07:10
  TRACK 63 AUDIO
    TITLE "0:"
    INDEX 01 01:17:39
